<?xml version="1.0" encoding="utf-8"?>
<!-- Generator: Adobe Illustrator 16.0.0, SVG Export Plug-In . SVG Version: 6.00 Build 0)  -->
<!DOCTYPE svg PUBLIC "-//W3C//DTD SVG 1.1//EN" "http://www.w3.org/Graphics/SVG/1.1/DTD/svg11.dtd">
<svg version="1.1" id="Layer_1" xmlns="http://www.w3.org/2000/svg" xmlns:xlink="http://www.w3.org/1999/xlink" x="0px" y="0px"
	 width="26px" height="26px" viewBox="0 0 26 26" enable-background="new 0 0 26 26" xml:space="preserve">
<path fill="#4066A5" d="M3,0h20c1.656,0,3,1.343,3,3v20c0,1.656-1.344,3-3,3H3c-1.657,0-3-1.344-3-3V3C0,1.343,1.343,0,3,0z"/>
<path fill="#FFFFFF" d="M19.707,7.793c0.391,0.391,0.391,1.023,0,1.414l-9,9c-0.391,0.391-1.023,0.391-1.414,0l-3-3
	c-0.391-0.391-0.391-1.023,0-1.414s1.023-0.391,1.414,0L10,16.086l8.292-8.293C18.684,7.402,19.316,7.402,19.707,7.793z"/>
</svg>
