<?xml version="1.0" encoding="utf-8"?>
<!-- Generator: Adobe Illustrator 16.0.0, SVG Export Plug-In . SVG Version: 6.00 Build 0)  -->
<!DOCTYPE svg PUBLIC "-//W3C//DTD SVG 1.1//EN" "http://www.w3.org/Graphics/SVG/1.1/DTD/svg11.dtd">
<svg version="1.1" id="Layer_1" xmlns="http://www.w3.org/2000/svg" xmlns:xlink="http://www.w3.org/1999/xlink" x="0px" y="0px"
	 width="26px" height="26px" viewBox="0 0 26 26" enable-background="new 0 0 26 26" xml:space="preserve">
<path fill="none" stroke="#4066A5" stroke-width="1.4173" stroke-miterlimit="10" d="M3.584,0.76h18.832
	c1.561,0,2.824,1.265,2.824,2.825v18.832c0,1.561-1.264,2.824-2.824,2.824H3.584c-1.56,0-2.825-1.264-2.825-2.824V3.584
	C0.76,2.024,2.024,0.76,3.584,0.76z"/>
<path fill="#FFFFFF" d="M19.707,7.793c0.391,0.391,0.391,1.023,0,1.414l-9,9c-0.391,0.391-1.023,0.391-1.414,0l-3-3
	c-0.391-0.391-0.391-1.023,0-1.414c0.391-0.391,1.023-0.391,1.414,0L10,16.086l8.292-8.293C18.684,7.402,19.316,7.402,19.707,7.793z
	"/>
</svg>
